<?xml version="1.0" encoding="UTF-8"?>
<svg xmlns="http://www.w3.org/2000/svg" xmlns:xlink="http://www.w3.org/1999/xlink" width="20px" height="20px"
     viewBox="0 0 20 20" version="1.1">
  <g id="surface1">
    <path style=" stroke:none;fill-rule:nonzero;fill:rgb(100%,100%,100%);fill-opacity:1;"
          d="M 16.667969 5 L 14.167969 5 L 14.167969 3.332031 C 14.167969 2.414062 13.417969 1.667969 12.5 1.667969 L 7.5 1.667969 C 6.582031 1.667969 5.832031 2.414062 5.832031 3.332031 L 5.832031 5 L 3.332031 5 C 2.414062 5 1.667969 5.746094 1.667969 6.667969 L 1.667969 15.832031 C 1.667969 16.753906 2.414062 17.5 3.332031 17.5 L 16.667969 17.5 C 17.585938 17.5 18.332031 16.753906 18.332031 15.832031 L 18.332031 6.667969 C 18.332031 5.746094 17.585938 5 16.667969 5 M 12.5 3.332031 L 12.5 5 L 7.5 5 L 7.5 3.332031 Z M 6.667969 6.667969 L 16.667969 6.667969 L 16.667969 9.167969 L 3.332031 9.167969 L 3.332031 6.667969 Z M 3.332031 15.832031 L 3.332031 10.832031 L 8.332031 10.832031 L 8.332031 12.5 L 11.667969 12.5 L 11.667969 10.832031 L 16.667969 10.832031 L 16.667969 15.832031 Z M 3.332031 15.832031 "/>
  </g>
</svg>
