<svg width="202" height="61" viewBox="0 0 202 61" fill="none" xmlns="http://www.w3.org/2000/svg">
<path fill-rule="evenodd" clip-rule="evenodd" d="M149.082 0.301758L183.646 0.301792C196.486 0.301792 200.043 7.16711 199.562 14.5448H174.249V12.0787L160.672 12.0786V16.8615H189.335C206.997 16.8615 205.836 39.8587 187.453 39.8587L150.114 39.8586C137.732 39.8586 134.217 32.0127 134.54 24.2353H161.284V26.4489L174.432 26.4489L174.404 21.9843H148.145C130.928 21.9843 131.177 0.792133 149.082 0.301758ZM0.991724 45.4284V57.0852H2.70139V51.9562H7.22423V50.5574H2.70139V46.8273H7.6905V45.4284H0.991724ZM8.29471 54.8316C8.29471 56.1682 9.18063 57.2407 10.9214 57.2407C12.1959 57.2407 12.9419 56.5257 13.3305 55.9662L13.517 57.0852H14.7604V52.2826C14.7604 50.231 13.6568 49.1586 11.5742 49.1586C9.49148 49.1586 8.76098 50.4175 8.76098 50.4175V51.4278H9.77124C9.77124 51.4278 10.2375 50.4797 11.5275 50.4797C12.7243 50.4797 13.2061 51.0859 13.2061 52.2516V52.7334C13.2061 52.7334 12.4135 52.5158 11.4343 52.5158C9.19617 52.5158 8.29471 53.5105 8.29471 54.8316ZM13.2061 54.3187C13.2061 55.0492 12.4445 55.9817 11.1701 55.9817C10.2841 55.9817 9.81787 55.6243 9.81787 54.8316C9.81787 54.2565 10.1753 53.697 11.4343 53.697C12.4756 53.697 13.2061 53.9146 13.2061 53.9146V54.3187ZM16.1971 53.1841C16.1971 55.4067 17.5026 57.2407 20.1448 57.2407C22.5694 57.2407 23.129 55.8108 23.129 55.8108V54.8005H22.1187C22.1187 54.8005 21.87 55.9196 20.1448 55.9196C18.5129 55.9196 17.7513 54.6917 17.7513 53.1841C17.7513 51.692 18.5129 50.4642 20.1448 50.4642C21.7923 50.4642 22.1032 51.5832 22.1032 51.5832H23.1134V50.573C23.1134 50.573 22.585 49.1431 20.1448 49.1431C17.658 49.1431 16.1971 50.9615 16.1971 53.1841ZM24.5776 53.9612C24.5776 55.7641 25.3858 57.2407 27.5306 57.2407C28.774 57.2407 29.5201 56.5723 29.9086 56.0439L30.0174 57.0852H31.4162V49.314H29.862V53.8835C29.862 54.8782 29.3802 55.9351 27.8881 55.9351C26.6292 55.9351 26.1318 55.0958 26.1318 53.868V49.314H24.5776V53.9612ZM33.4058 45.4284V57.0852H34.96V45.4284H33.4058ZM37.3854 54.4741C37.3854 56.277 38.3335 57.2407 40.1985 57.2407C41.4886 57.2407 42.0481 56.6034 42.2968 56.1993V55.1891H41.2865C41.2865 55.1891 41.2088 55.9196 40.2141 55.9196C39.266 55.9196 38.9396 55.2979 38.9396 54.3187V50.6351H41.9859V49.314H38.9396V47.3712H37.5408L37.4475 49.314H36.1264V50.6351H37.3854V54.4741ZM43.2393 60.9708H44.3272L50.1245 50.3243V49.314H49.1143L46.4255 54.3809L43.69 49.314H42.602V50.402L45.5862 55.8419L43.2393 59.8829V60.9708ZM54.038 53.1841C54.038 55.4067 55.4989 57.2407 57.9857 57.2407C60.457 57.2407 61.9335 55.4067 61.9335 53.1841C61.9335 50.9615 60.457 49.1586 57.9857 49.1586C55.4989 49.1586 54.038 50.9615 54.038 53.1841ZM60.3793 53.1841C60.3793 54.6917 59.6177 55.9196 57.9857 55.9196C56.3538 55.9196 55.5922 54.6917 55.5922 53.1841C55.5922 51.7076 56.3538 50.4797 57.9857 50.4797C59.6177 50.4797 60.3793 51.7076 60.3793 53.1841ZM63.922 50.6351V57.0852H65.4762V50.6351H67.9785V49.314H65.4762V48.0085C65.4762 47.107 65.8337 46.6718 66.5175 46.6718C67.2169 46.6718 67.3568 47.1692 67.3568 47.1692H68.4137V46.1589C68.1806 45.7237 67.5744 45.273 66.502 45.273C64.87 45.273 63.922 46.2833 63.922 48.0396V49.314H62.5231V50.6351H63.922ZM71.9281 51.2102C71.9281 54.5207 73.8865 57.2407 77.6633 57.2407C80.9738 57.2407 82.0151 55.2823 82.0151 55.2823V54.1944H80.7718C80.7718 54.1944 80.119 55.8263 77.7099 55.8263C75.1454 55.8263 73.6378 53.7592 73.6378 51.2102C73.6378 48.6457 75.1454 46.6718 77.7099 46.6718C80.1656 46.6718 80.694 48.2416 80.694 48.2416H81.9374V47.1536C81.9374 47.1536 81.0204 45.273 77.6633 45.273C74.1973 45.273 71.9281 47.8686 71.9281 51.2102ZM82.9687 53.1841C82.9687 55.4067 84.4297 57.2407 86.9165 57.2407C89.3877 57.2407 90.8642 55.4067 90.8642 53.1841C90.8642 50.9615 89.3877 49.1586 86.9165 49.1586C84.4297 49.1586 82.9687 50.9615 82.9687 53.1841ZM89.31 53.1841C89.31 54.6917 88.5484 55.9196 86.9165 55.9196C85.2845 55.9196 84.5229 54.6917 84.5229 53.1841C84.5229 51.7076 85.2845 50.4797 86.9165 50.4797C88.5484 50.4797 89.31 51.7076 89.31 53.1841ZM92.368 49.314V57.0852H93.9222V52.5158C93.9222 51.5211 94.3263 50.4642 95.5853 50.4642C96.6266 50.4642 97.0307 51.2258 97.0307 52.3448V57.0852H98.5849V52.2516C98.5849 51.4278 99.0046 50.4642 100.248 50.4642C101.289 50.4642 101.693 51.2413 101.693 52.3759V57.0852H103.248V52.2826C103.248 50.573 102.517 49.1586 100.605 49.1586C99.331 49.1586 98.6005 49.8269 98.2119 50.4331C97.8078 49.656 97.0929 49.1586 95.9427 49.1586C94.8703 49.1586 94.2175 49.7803 93.8756 50.3088L93.7668 49.314H92.368ZM105.156 49.314V60.9708H106.71V55.8729C107.301 56.7122 108.218 57.2407 109.414 57.2407C111.699 57.2407 113.051 55.4067 113.051 53.1841C113.051 50.9615 111.699 49.1586 109.414 49.1586C108.218 49.1586 107.285 49.6871 106.695 50.5419L106.555 49.314H105.156ZM111.497 53.1841C111.497 54.6917 110.736 55.9196 109.104 55.9196C107.627 55.9196 106.71 54.6917 106.71 53.1841C106.71 51.692 107.627 50.4797 109.104 50.4797C110.736 50.4797 111.497 51.692 111.497 53.1841ZM114.496 53.9612C114.496 55.7641 115.305 57.2407 117.45 57.2407C118.693 57.2407 119.439 56.5723 119.828 56.0439L119.936 57.0852H121.335V49.314H119.781V53.8835C119.781 54.8782 119.299 55.9351 117.807 55.9351C116.548 55.9351 116.051 55.0958 116.051 53.868V49.314H114.496V53.9612ZM123.76 54.4741C123.76 56.277 124.708 57.2407 126.573 57.2407C127.863 57.2407 128.423 56.6034 128.671 56.1993V55.1891H127.661C127.661 55.1891 127.583 55.9196 126.589 55.9196C125.641 55.9196 125.314 55.2979 125.314 54.3187V50.6351H128.36V49.314H125.314V47.3712H123.915L123.822 49.314H122.501V50.6351H123.76V54.4741ZM129.256 53.1841C129.256 55.5621 130.624 57.2407 133.282 57.2407C135.722 57.2407 136.499 55.9662 136.499 55.9662V54.9559H135.489C135.489 54.9559 135.054 55.904 133.282 55.904C131.712 55.904 130.888 54.9404 130.811 53.4172H136.592C136.592 53.4172 136.654 53.0598 136.654 52.5779C136.654 50.6196 135.598 49.1586 133.095 49.1586C130.608 49.1586 129.256 50.9615 129.256 53.1841ZM135.131 52.2516H130.888C131.106 51.2258 131.712 50.4797 133.111 50.4797C134.479 50.4797 135.131 51.2413 135.131 52.2516ZM138.2 49.314V57.0852H139.754V52.5779C139.754 51.3656 140.314 50.4642 141.433 50.4642C142.522 50.4642 142.77 51.2167 142.821 51.3698C142.827 51.3871 142.83 51.3967 142.831 51.3967H143.842V50.3865C143.686 49.7492 143.049 49.1586 141.915 49.1586C140.842 49.1586 140.127 49.6404 139.707 50.3398L139.599 49.314H138.2ZM147.861 55.3445C148.359 56.3392 149.711 57.2407 151.654 57.2407C153.907 57.2407 155.539 55.9973 155.539 54.0078C155.539 52.2205 154.576 51.1325 152.617 50.5108L151.529 50.1689C150.255 49.7648 149.633 49.2674 149.633 48.3504C149.633 47.449 150.286 46.6718 151.623 46.6718C152.944 46.6718 153.581 47.278 153.845 48.1328H155.089V47.0448C154.684 45.988 153.596 45.273 151.747 45.273C149.524 45.273 148.001 46.5009 148.001 48.4748C148.001 50.1222 148.965 51.1791 151.047 51.8008L151.871 52.0495C153.27 52.4691 153.892 52.982 153.892 54.0078C153.892 55.1424 152.959 55.8419 151.685 55.8419C150.333 55.8419 149.447 55.1424 149.105 54.2565H147.861V55.3445ZM156.623 53.1841C156.623 55.4067 157.929 57.2407 160.571 57.2407C162.996 57.2407 163.555 55.8108 163.555 55.8108V54.8005H162.545C162.545 54.8005 162.296 55.9196 160.571 55.9196C158.939 55.9196 158.178 54.6917 158.178 53.1841C158.178 51.692 158.939 50.4642 160.571 50.4642C162.219 50.4642 162.529 51.5832 162.529 51.5832H163.54V50.573C163.54 50.573 163.011 49.1431 160.571 49.1431C158.084 49.1431 156.623 50.9615 156.623 53.1841ZM165.082 49.314V57.0852H166.636V49.314H165.082ZM165.004 45.8947V47.6044H166.714V45.8947H165.004ZM168.16 53.1841C168.16 55.5621 169.527 57.2407 172.185 57.2407C174.625 57.2407 175.402 55.9662 175.402 55.9662V54.9559H174.392C174.392 54.9559 173.957 55.904 172.185 55.904C170.615 55.904 169.792 54.9404 169.714 53.4172H175.496C175.496 53.4172 175.558 53.0598 175.558 52.5779C175.558 50.6196 174.501 49.1586 171.999 49.1586C169.512 49.1586 168.16 50.9615 168.16 53.1841ZM174.035 52.2516H169.792C170.009 51.2258 170.615 50.4797 172.014 50.4797C173.382 50.4797 174.035 51.2413 174.035 52.2516ZM177.103 49.314V57.0852H178.657V52.5158C178.657 51.5211 179.139 50.4642 180.631 50.4642C181.89 50.4642 182.388 51.3035 182.388 52.5313V57.0852H183.942V52.4381C183.942 50.6351 183.134 49.1586 180.989 49.1586C179.73 49.1586 178.999 49.8269 178.611 50.3554L178.502 49.314H177.103ZM185.372 53.1841C185.372 55.4067 186.677 57.2407 189.32 57.2407C191.744 57.2407 192.304 55.8108 192.304 55.8108V54.8005H191.294C191.294 54.8005 191.045 55.9196 189.32 55.9196C187.688 55.9196 186.926 54.6917 186.926 53.1841C186.926 51.692 187.688 50.4642 189.32 50.4642C190.967 50.4642 191.278 51.5832 191.278 51.5832H192.288V50.573C192.288 50.573 191.76 49.1431 189.32 49.1431C186.833 49.1431 185.372 50.9615 185.372 53.1841ZM193.364 53.1841C193.364 55.5621 194.732 57.2407 197.389 57.2407C199.83 57.2407 200.607 55.9662 200.607 55.9662V54.9559H199.596C199.596 54.9559 199.161 55.904 197.389 55.904C195.82 55.904 194.996 54.9404 194.918 53.4172H200.7C200.7 53.4172 200.762 53.0598 200.762 52.5779C200.762 50.6196 199.705 49.1586 197.203 49.1586C194.716 49.1586 193.364 50.9615 193.364 53.1841ZM199.239 52.2516H194.996C195.213 51.2258 195.82 50.4797 197.218 50.4797C198.586 50.4797 199.239 51.2413 199.239 52.2516ZM67.7489 20.0803C67.7489 9.15699 76.1382 0.30187 86.4869 0.30187H115.783C125.779 0.30187 133.947 8.56435 134.492 18.9722H111.736V17.07H91.483V23.3991H111.736V21.5039H134.473C133.782 31.7627 125.678 39.8588 115.783 39.8588H86.4869C76.1381 39.8588 67.7489 31.0037 67.7489 20.0803ZM12.6563 1.25319C5.66533 1.25319 -0.00195312 6.92047 -0.00195312 13.9114V39.8607H30.0613V34.1646H66.7701V21.9912H28.5071V17.9156H66.7701V1.25327H30.0613V1.25319H12.6563Z" fill="#102D69"/>
</svg>
