<?xml version="1.0" standalone="no"?>
<!DOCTYPE svg PUBLIC "-//W3C//DTD SVG 20010904//EN"
  "http://www.w3.org/TR/2001/REC-SVG-20010904/DTD/svg10.dtd">
<svg version="1.0" xmlns="http://www.w3.org/2000/svg"
     width="400.000000pt" height="400.000000pt" viewBox="0 0 400.000000 400.000000"
     preserveAspectRatio="xMidYMid meet">

  <g transform="translate(0.000000,400.000000) scale(0.100000,-0.100000)"
     fill="#102D69" stroke="none">
    <path d="M3418 3455 c-110 -27 -196 -84 -233 -155 -45 -86 -44 -309 1 -410 32
-71 75 -114 205 -200 219 -147 229 -159 229 -285 0 -86 -22 -125 -70 -125 -50
0 -60 28 -60 162 l0 118 -167 0 -166 0 6 -127 c4 -78 12 -147 22 -175 49 -139
209 -218 420 -205 136 9 227 46 292 121 41 46 53 88 60 216 6 116 -11 230 -46
298 -28 55 -105 122 -248 216 -172 112 -177 118 -177 210 -1 81 17 116 58 116
43 0 50 -15 56 -112 l5 -93 160 0 160 0 -1 100 c-1 123 -15 175 -59 224 -85
94 -292 143 -447 106z"/>
    <path d="M940 2756 l0 -676 178 2 177 3 2 265 2 265 94 6 c179 12 263 56 292
151 23 78 21 416 -2 489 -21 66 -71 117 -138 143 -44 18 -82 20 -327 24 l-278
4 0 -676z m441 425 c23 -18 24 -25 24 -149 0 -148 -10 -172 -71 -172 l-33 0
-3 166 c-2 91 -1 168 1 170 11 11 61 2 82 -15z"/>
    <path d="M1906 3422 c-3 -5 -12 -64 -21 -133 -8 -68 -20 -155 -25 -194 -19
-144 -40 -304 -55 -415 -9 -63 -22 -167 -31 -230 -8 -63 -19 -146 -24 -185 -6
-38 -13 -96 -16 -127 l-7 -58 181 0 c210 0 187 -16 197 134 3 48 8 92 11 97 3
5 32 9 64 9 l58 0 6 -77 c4 -43 9 -97 12 -120 l5 -43 180 0 180 0 -5 33 c-13
78 -37 233 -57 367 -22 150 -40 275 -58 395 -6 39 -24 162 -41 275 -17 113
-33 222 -37 243 l-6 37 -253 0 c-139 0 -255 -4 -258 -8z m300 -627 c25 -256
29 -230 -36 -230 l-55 0 3 65 c3 68 37 370 49 430 6 33 7 31 14 -25 4 -33 15
-141 25 -240z"/>
    <path d="M2680 2755 l0 -675 175 0 175 0 0 675 0 675 -175 0 -175 0 0 -675z"/>
    <path d="M271 2474 c-61 -22 -108 -53 -158 -105 -41 -42 -93 -134 -93 -164 0
-8 -4 -15 -10 -15 -6 0 -10 -32 -10 -75 0 -43 4 -75 10 -75 6 0 10 -6 10 -13
0 -33 64 -138 110 -181 79 -74 146 -100 255 -101 78 0 98 4 148 27 32 15 72
39 89 53 22 19 34 23 46 15 9 -5 73 -45 142 -88 l125 -79 3 -149 2 -149 -146
-93 -146 -94 -21 20 c-12 11 -47 33 -77 49 -70 36 -201 44 -278 19 -109 -37
-213 -139 -243 -240 -7 -25 -17 -46 -21 -46 -4 0 -8 -31 -8 -70 0 -40 4 -70
10 -70 6 0 10 -7 10 -16 0 -33 54 -126 99 -173 57 -58 125 -95 209 -112 151
-31 326 61 400 211 24 49 27 66 27 155 0 55 -4 107 -8 116 -6 13 13 30 96 83
57 36 108 66 112 66 5 0 17 -8 28 -17 17 -16 47 -18 331 -17 171 0 324 4 339
8 50 12 67 56 67 179 l0 108 92 -3 92 -3 21 -55 c27 -68 107 -157 172 -192
176 -95 388 -37 498 137 44 69 59 130 53 218 -9 136 -86 249 -213 312 -54 27
-69 30 -160 30 -90 0 -106 -3 -160 -29 -76 -38 -147 -110 -182 -186 l-28 -60
-92 0 -93 0 0 108 c0 120 -16 163 -67 183 -16 6 -144 9 -339 7 -308 -3 -313
-3 -336 -25 l-24 -23 -90 56 c-118 74 -126 82 -113 106 6 12 9 57 7 107 -4
107 -35 179 -108 251 -73 74 -144 104 -250 107 -59 2 -99 -2 -129 -13z m202
-169 c48 -20 102 -86 116 -142 14 -55 -5 -135 -44 -182 -74 -87 -218 -94 -300
-14 -102 99 -80 264 44 330 52 27 130 31 184 8z m1072 -780 l0 -210 -217 -3
-218 -2 0 215 0 215 218 -2 217 -3 0 -210z m829 172 c67 -38 97 -85 103 -160
7 -86 -19 -144 -85 -190 -42 -29 -54 -32 -117 -32 -60 0 -76 4 -110 27 -61 42
-89 89 -93 163 -6 90 31 155 113 198 46 25 141 22 189 -6z m-1879 -602 c50
-29 78 -70 95 -137 30 -117 -77 -248 -202 -248 -41 0 -110 29 -142 58 -63 59
-83 159 -47 237 53 114 186 155 296 90z"/>
    <path d="M2204 1632 c-32 -21 -64 -76 -64 -111 0 -72 58 -131 129 -131 125 0
181 125 97 217 -27 30 -41 36 -82 40 -37 3 -57 -1 -80 -15z"/>
    <path d="M2777 1904 c-4 -4 -7 -157 -7 -341 l0 -333 60 0 60 0 -2 338 -3 337
-50 3 c-28 2 -54 0 -58 -4z"/>
    <path d="M3510 1570 l0 -340 55 0 c55 0 55 0 55 31 l0 31 35 -31 c66 -58 145
-61 218 -7 59 44 93 144 85 256 -10 139 -78 215 -192 215 -47 0 -68 -5 -93
-22 -17 -13 -34 -23 -37 -23 -3 0 -7 51 -8 113 l-3 112 -57 3 -58 3 0 -341z
m271 47 c33 -25 49 -74 49 -149 0 -74 -11 -105 -50 -135 -21 -17 -66 -16 -95
3 -71 46 -73 229 -4 278 27 19 77 21 100 3z"/>
    <path d="M3105 1718 c-39 -14 -80 -52 -96 -89 -14 -36 -12 -39 46 -50 44 -8
48 -7 72 21 45 54 143 35 143 -28 0 -27 -15 -34 -117 -57 -126 -28 -185 -91
-168 -181 20 -109 156 -153 260 -84 37 25 41 25 48 0 4 -17 14 -20 62 -20 55
0 57 1 50 23 -4 12 -10 106 -14 209 l-6 187 -30 30 c-16 17 -45 36 -64 41 -46
13 -147 12 -186 -2z m165 -304 c0 -37 -5 -51 -29 -75 -51 -50 -131 -32 -131
31 0 15 8 34 18 43 14 13 103 44 135 46 4 1 7 -20 7 -45z"/>
  </g>
</svg>
